# xmcd CD database file
#
# Track frame offsets:
#	187
#	27330
#	49752
#	76845
#	97905
#	125227
#	149542
#	174220
#
# Disc length: 2642 seconds
#
# Revision: 0
# Processed by: cddbd v1.5.2PL0 Copyright (c) Steve Scherf et al.
# Submitted via: CDex 1.70beta2
#
DISCID=630a5008
DTITLE=Viti Ruiz - Sedúceme
DYEAR=1996
DGENRE=Salsa
TTITLE0=Entre Familia
TTITLE1=Solo Mía
TTITLE2=Me Muero Por Estar Contigo
TTITLE3=Esta Noche Tengo Ganas
TTITLE4=Sedúceme
TTITLE5=Caricias Prohibidas
TTITLE6=Si Me Faltas Me Matas
TTITLE7=Le Que Se Quiere Se Cuida
EXTD=YEAR: 1996
EXTT0=
EXTT1=
EXTT2=
EXTT3=
EXTT4=
EXTT5=
EXTT6=
EXTT7=
PLAYORDER=
